<svg width="14" height="16" viewBox="0 0 14 16" fill="none" xmlns="http://www.w3.org/2000/svg">
<path d="M9.85 3.5V3.65H10H11.5263C12.2532 3.65 12.8495 4.22545 12.8755 4.95183L13.1969 13.9518C13.2242 14.7158 12.6123 15.35 11.8478 15.35H2.1523C1.38783 15.35 0.775879 14.7158 0.803163 13.9518L1.12459 4.95182C1.15053 4.22545 1.7469 3.65 2.47373 3.65H4H4.15V3.5C4.15 1.92599 5.42599 0.65 7 0.65C8.57398 0.65 9.85 1.92599 9.85 3.5ZM4.15 5V4.85H4H2.47373H2.329L2.32383 4.99465L2.00239 13.9946L1.99685 14.15H2.1523H11.8478H12.0032L11.9977 13.9946L11.6762 4.99465L11.6711 4.85H11.5263H10H9.85V5V5.75C9.85 6.08137 9.58138 6.35 9.25 6.35C8.9438 6.35 8.691 6.12051 8.65453 5.82424L8.65 5.74568V5V4.85H8.5H5.5H5.35V5V5.75C5.35 6.08137 5.08137 6.35 4.75 6.35C4.44381 6.35 4.191 6.12051 4.15453 5.82424L4.15 5.74568V5ZM5.35452 3.37702L5.35442 3.37701L5.35421 3.38254L5.3501 3.49449L5.34439 3.65H5.5H8.5H8.65V3.5C8.65 2.58873 7.91129 1.85 7 1.85C6.13006 1.85 5.41752 2.52311 5.35452 3.37702Z" fill="#1B1A1A" stroke="white" stroke-width="0.3"/>
</svg>
