<svg width="35" height="28" viewBox="0 0 35 28" fill="none" xmlns="http://www.w3.org/2000/svg">
<path d="M25.75 5.25V5.75H26.25H28.9089C29.8202 5.75 30.6823 6.16428 31.2515 6.87589L31.2515 6.87591L33.8425 10.1148L34.233 9.80245L33.8426 10.1148C34.2681 10.6467 34.5 11.3076 34.5 11.9889V19.25C34.5 20.9069 33.1569 22.25 31.5 22.25H31V22.75C31 25.3734 28.8734 27.5 26.25 27.5C23.6266 27.5 21.5 25.3734 21.5 22.75V22.25H21H14H13.5V22.75C13.5 25.3734 11.3733 27.5 8.75 27.5C6.12665 27.5 4 25.3734 4 22.75V22.25H3.5C1.84314 22.25 0.5 20.9069 0.5 19.25V3.5C0.5 1.84314 1.84314 0.5 3.5 0.5H22.75C24.4069 0.5 25.75 1.84314 25.75 3.5V5.25ZM23.25 3.5V3H22.75H3.5H3V3.5V19.25V19.75H3.5H4.83681H5.0603L5.20936 19.5835C6.07985 18.611 7.34327 18 8.75 18C10.046 18 11.2199 18.5184 12.0774 19.3602L12.3013 19.595L12.4491 19.75H12.6632H22.3368H22.5521L22.7 19.5937L22.8914 19.3914L23.0937 19.2L23.25 19.0521V18.8368V3.5ZM29.2994 8.43766L29.1493 8.25H28.9089H26.25H25.75V8.75V17.5V18H26.25C27.546 18 28.7199 18.5184 29.5774 19.3602L29.8013 19.595L29.949 19.75H30.1632H31.5H32V19.25V11.9889V11.8135L31.8904 11.6766L29.2994 8.43766ZM8.75 20.5C7.50737 20.5 6.5 21.5073 6.5 22.75C6.5 23.9927 7.50737 25 8.75 25C9.99263 25 11 23.9927 11 22.75C11 21.5073 9.99263 20.5 8.75 20.5ZM26.25 20.5C25.0073 20.5 24 21.5073 24 22.75C24 23.9927 25.0073 25 26.25 25C27.4927 25 28.5 23.9927 28.5 22.75C28.5 21.5073 27.4927 20.5 26.25 20.5Z" fill="white" stroke="#1B1A1A"/>
</svg>
