<svg fill="none" height="14" viewBox="0 0 16 14" width="16" xmlns="http://www.w3.org/2000/svg"><path d="m7.90535 1.37028.09465.07699.09465-.07699c1.50206-1.221773 3.28025-1.216975 4.70015-.389677 1.5228.887207 2.6012 2.694327 2.5537 4.810917-.0589 2.62444-2.104 4.97518-5.68556 7.10268-.07989.0475-.15859.0958-.23693.144-.19152.1177-.38087.234-.58016.3326-.27693.1369-.555.2293-.84585.2293-.28426 0-.56514-.0939-.84597-.2321-.20648-.1017-.40318-.222-.59843-.3414-.07291-.0446-.14562-.0891-.21856-.1324l-.07661.129.0766-.129c-3.5815-2.1275-5.626666-4.47824-5.685523-7.10268-.047466-2.11659 1.030853-3.92371 2.553613-4.810916 1.41996-.827301 3.1982-.832096 4.70023.389676zm-.95546 10.49222.07661-.129-.07661.129c.06532.0388.1313.08.1998.1228.00982.0062.01969.0123.02963.0185.07849.0491.15997.0995.24329.1476.16616.0958.34565.1854.53725.2386l.04014.0112.04014-.0112c.1916-.0532.37109-.1428.53725-.2386.08332-.0481.1648-.0985.24329-.1476.00993-.0062.01981-.0123.02963-.0185.06849-.0428.13448-.084.1998-.1228 3.50539-2.08229 5.05459-4.13176 5.09869-6.09793.038-1.6957-.8259-3.08751-1.958-3.74711-.5469-.31861-1.1673-.47509-1.8028-.39836-.63643.07685-1.27615.38618-1.86263.9792-.28824.29145-.7625.29145-1.05074 0-.58648-.59302-1.2262-.90235-1.8626-.9792-.63549-.07673-1.25595.07975-1.8028.39836-1.13212.6596-1.99606 2.05141-1.95802 3.74711.04409 1.96617 1.59333 4.01564 5.09868 6.09793z" fill="#1b1a1a" stroke="#fff" stroke-width=".3"/></svg>