<svg width="96" height="39" viewBox="0 0 96 39" fill="none" xmlns="http://www.w3.org/2000/svg">
<path d="M25.3074 16.2667L28.3068 16.2735C28.3068 16.2735 28.8458 16.2493 28.8458 16.6741L28.835 26.0308C28.835 26.0308 28.9934 29.0624 31.6759 29.0624C34.5426 29.0624 34.4506 26.0308 34.4506 26.0308L34.4533 16.6377C34.4533 16.6377 34.4533 16.1927 34.823 16.1927H37.9389C37.9389 16.1927 38.383 16.1685 38.383 16.7291C38.383 17.2898 38.3858 29.5801 38.3858 29.5801C38.3858 29.5801 38.3749 29.9592 38.1772 30.0251C37.9226 30.1072 35.0085 31.0738 35.0085 31.0738C35.0085 31.0738 34.4534 31.2351 34.4534 30.8103V29.7658C34.4534 29.7658 34.4398 29.5574 34.2286 29.7294C34.0959 29.8383 32.4006 31.4328 30.28 31.4328C26.7782 31.4328 24.8878 28.7495 24.8878 26.0324L24.8986 16.6191C24.8972 16.6177 24.9717 16.2736 25.3075 16.2668L25.3074 16.2667ZM24.3338 30.7471C24.1861 30.2309 14.7046 1.22338 14.7046 1.22338C14.7046 1.22338 14.5855 0.798559 14.2279 0.912827L10.7099 1.95875C10.7099 1.95875 10.3903 2.05555 10.2684 2.38095L0.213963 30.6113C0.213963 30.6113 2.88486e-05 31.1289 0.502379 31.1275H2.00417C2.00417 31.1275 2.33459 31.184 2.48765 30.7955C2.5675 30.5885 4.63808 24.3681 6.76672 17.9756C6.95764 17.8224 7.31106 17.8506 7.31106 17.8506H15.2639C15.3534 17.8506 15.4305 17.903 15.4861 17.9527L19.6568 30.7095C19.6568 30.7095 19.7787 31.1733 20.273 31.1733H23.9224C23.9224 31.1733 24.483 31.2661 24.3341 30.7471H24.3338ZM14.6884 16.2977H7.59C7.46551 16.2977 7.40449 16.217 7.37607 16.1457C9.30435 10.3529 11.0579 5.0775 11.0579 5.0775C11.1216 4.91217 11.2136 4.90943 11.2719 5.06676L14.9009 16.1618C14.8575 16.2976 14.6884 16.2976 14.6884 16.2976V16.2977ZM48.4443 16.0638C46.0799 16.0678 44.7204 17.4135 44.5322 17.5802C44.4212 17.6798 44.3711 17.6085 44.3467 17.5318V1.32676C44.3467 1.32676 44.3129 0.932931 43.7523 1.10622C43.1172 1.29976 40.7799 2.01762 40.6228 2.06746C40.4725 2.11178 40.4347 2.25301 40.4347 2.6214V30.8007C40.4347 30.8007 40.5091 31.1705 40.8449 31.1705H44.0474C44.2248 31.1705 44.3467 31.0588 44.3467 30.8371V29.8234C44.3887 29.666 44.5322 29.7898 44.5322 29.7898C44.5322 29.7898 45.8755 31.196 48.2845 31.196C52.3808 31.196 54.7532 27.6442 54.7558 23.6272C54.7653 18.8426 51.7104 16.0571 48.4442 16.0638L48.4443 16.0638ZM47.6141 29.494C45.1523 29.494 44.5065 27.015 44.3479 25.3789V21.2893C44.4698 20.0955 45.0466 17.9781 47.6141 17.9781C49.4259 17.9767 50.9169 20.2231 50.9155 23.6016C50.9115 30.0116 47.6141 29.494 47.6141 29.494Z" fill="#1B1A1A"/>
<path d="M67.1556 30.7268V20.2985C67.1448 19.5753 67.0811 19.0213 66.7277 18.4486C65.5671 16.5665 62.8535 16.1565 61.2718 16.1565C59.2771 16.1565 57.0456 16.814 56.1112 18.0413C55.3651 19.0214 55.8418 19.4932 55.9635 19.6129C56.2045 19.8536 56.6135 19.8979 57.0793 19.8347C58.0502 19.7043 58.5161 19.1141 58.8885 18.5212C58.9888 18.3598 59.3138 18.005 59.4829 17.9122C59.6943 17.7952 60.1329 17.4309 61.1973 17.4309C62.1465 17.4309 63.1514 18.0601 63.1514 19.5766V21.5178C63.1094 21.7276 62.9767 21.8203 62.5746 21.9265C61.0227 22.3259 59.2583 22.8676 57.8622 23.5156C57.2352 23.8073 54.5298 25.1073 54.5298 27.8243C54.5298 30.5412 56.8752 31.4313 58.8887 31.4313C60.8982 31.4313 62.5015 30.376 62.8007 30.2105C63.0973 30.0425 63.184 30.111 63.184 30.111V30.1096C63.4914 30.1957 65.9667 30.9068 66.5584 31.0802C67.1963 31.2644 67.1556 30.7267 67.1556 30.7267L67.1556 30.7268ZM62.4066 28.8783C61.2908 29.8193 60.0788 29.6351 59.3151 29.1727C58.5528 28.7116 58.0301 27.1226 59.1296 25.5671C60.2278 24.0157 62.4432 23.4228 62.8373 23.2937C63.035 23.2278 63.1203 23.3247 63.1515 23.4376V27.499C63.0838 27.9224 62.8929 28.4682 62.4068 28.8783H62.4066ZM81.6475 1.00679C81.6475 1.00679 79.0746 1.76238 78.4788 1.93171C78.1538 2.0245 78.1822 2.59577 78.1822 2.59577V17.0881C78.1822 17.3893 78.0237 17.5721 77.8328 17.3772C77.264 16.7856 75.998 16.0475 74.1333 16.0475C71.0038 16.0475 67.6538 18.5117 67.6213 23.6029C67.5929 28.4722 70.8062 31.3572 73.9844 31.3572C76.2931 31.3572 77.7855 29.7534 77.933 29.631C78.0413 29.541 78.1822 29.5732 78.1822 29.7386V30.482C78.1822 31.2456 78.407 31.1113 78.5925 31.0749C78.778 31.0374 81.6473 30.185 81.8329 30.1111C82.0184 30.0372 82.0576 29.9148 82.0576 29.5949C82.0576 29.2736 82.0684 1.27843 82.0684 1.27843C82.067 0.88323 81.6473 1.00683 81.6473 1.00683L81.6475 1.00679ZM75.1545 29.3219C71.6771 29.334 71.65 24.0089 71.65 23.588C71.65 23.1672 71.6256 17.8435 75.1273 17.8542C77.0002 17.861 77.9046 19.5508 78.1822 21.2085C78.2188 22.8795 78.2188 24.4875 78.1822 25.8291C77.9358 27.6789 76.9702 29.3137 75.1544 29.3217L75.1545 29.3219ZM87.1589 21.8081H95.2255C95.5749 21.8081 96 21.8109 95.9446 21.2892C95.5613 17.5653 92.7312 15.6927 89.7128 15.7168C85.9117 15.7463 82.693 19.4891 82.6862 23.779C82.678 26.75 84.4655 31.4459 89.3146 31.4459C94.3005 31.4459 95.6222 27.0566 95.6723 26.8844C95.7387 26.6734 95.6479 26.5819 95.5828 26.5496C95.3797 26.4461 95.2254 26.391 95.0032 26.3426C94.7677 26.2902 94.704 26.4314 94.6037 26.6007C94.4683 26.8359 93.3877 29.2141 90.8054 29.2141C86.3462 29.2141 86.7565 22.4586 86.7701 22.1373C86.7783 21.9168 86.8649 21.8349 87.1588 21.8079L87.1589 21.8081ZM87.293 19.6519C87.9728 17.2589 89.7873 17.271 89.7873 17.271C91.0777 17.271 92.096 18.1206 92.096 19.9342C92.096 20.2529 91.7738 20.1669 91.7738 20.1669H87.3092C87.1223 20.0647 87.293 19.6521 87.293 19.6521V19.6519ZM36.7377 34.8311H37.6667C38.127 34.8311 38.3411 34.9024 38.5266 35.0234C38.7758 35.1887 38.9451 35.4711 38.9451 35.8206C38.9451 36.1701 38.7758 36.4498 38.5266 36.6165C38.3411 36.7375 38.1271 36.8101 37.6667 36.8101H37.0722V38.1409H36.7392V34.8311L36.7377 34.8311ZM37.0721 36.5075H37.5556C37.9104 36.5075 38.0323 36.5075 38.2218 36.4228C38.4832 36.3005 38.6077 36.0693 38.6077 35.8192C38.6077 35.5665 38.4832 35.3366 38.2218 35.2142C38.0309 35.1296 37.9104 35.1296 37.5556 35.1296H37.0721V36.5075V36.5075ZM43.2999 34.8311H43.6723L45.1036 38.1396H44.7408L44.2573 37.0265H42.7095L42.2234 38.1396H41.8767L43.2999 34.8311H43.2999ZM42.8339 36.7266H44.1272L43.4867 35.2061L42.8341 36.7266H42.8339ZM48.7381 34.8311H49.5844C50.0313 34.8311 50.2506 34.885 50.4037 34.9575C50.7762 35.1309 50.9981 35.4926 50.9981 35.8999C50.9981 36.3772 50.6515 36.8651 50.0069 36.9055L50.948 38.1396H50.5295L49.4002 36.642C49.824 36.642 49.9661 36.6393 50.1138 36.5935C50.4795 36.4914 50.6636 36.1862 50.6636 35.8932C50.6636 35.6337 50.5159 35.3635 50.3007 35.2573C50.1004 35.1538 49.9283 35.1309 49.6507 35.1309H49.0685V38.1397H48.7355V34.8312L48.7381 34.8311ZM54.7679 34.8311H55.0983V38.1396H54.7679V34.8311ZM59.1392 37.2147C59.1582 37.6315 59.4249 37.8976 59.8352 37.8976C60.1873 37.8976 60.5041 37.6313 60.5041 37.2415C60.5041 36.732 59.9882 36.6015 59.7634 36.5344C59.4614 36.447 58.8954 36.3206 58.8954 35.6645C58.8954 35.1497 59.3057 34.7745 59.8338 34.7745C60.3754 34.7745 60.7547 35.19 60.7547 35.6726H60.4242C60.4242 35.3379 60.1493 35.0744 59.8338 35.0744C59.4506 35.0744 59.2286 35.3647 59.2286 35.6524C59.2286 36.0529 59.586 36.1485 60.0221 36.2721C60.8414 36.4926 60.8373 37.1312 60.8373 37.2306C60.8373 37.7401 60.4242 38.2012 59.8352 38.2012C59.4019 38.2012 58.8195 37.9471 58.8061 37.2185H59.1392V37.2147Z" fill="#1B1A1A"/>
</svg>
