<svg fill="none" height="14" viewBox="0 0 14 14" width="14" xmlns="http://www.w3.org/2000/svg"><path d="m5.71796.742969c.22515-.506496.9193-.531827 1.19129-.075975l.03931.075975.69467 1.562931c.60732 1.36644 1.61691 2.5127 2.89117 3.28756l.2148.12568 1.2339.694c.4322.24316.4562.84436.072 1.12725l-.072.04648-1.2339.69407c-1.30324.73307-2.34945 1.84606-3.00105 3.18756l-.10492.2256-.69467 1.563c-.22509.5064-.91923.5318-1.19128.0759l-.03932-.0759-.69462-1.563c-.6073-1.3664-1.61693-2.51268-2.89122-3.28749l-.21481-.12567-1.233878-.69407c-.432203-.2431-.45622-.8443-.072034-1.12724l.072034-.04649 1.233878-.694c1.30328-.73313 2.34953-1.84606 3.00111-3.18756l.10492-.22568zm6.09564-.328927c.3324.747868.8932 1.379418 1.6095 1.782318.1068.06009.1068.21388 0 .27397-.7163.4029-1.2771 1.03446-1.6095 1.78232-.0566.12735-.2374.12735-.294 0-.3323-.74787-.8932-1.37942-1.60944-1.78232-.1068-.06009-.1068-.21388 0-.27397.71624-.40289 1.27714-1.03445 1.60944-1.782318.0566-.127353.2374-.127353.294 0z" fill="#1b1a1a"/></svg>