<svg width="14" height="12" viewBox="0 0 14 12" fill="none" xmlns="http://www.w3.org/2000/svg">
<path d="M9.00004 0.666656C9.73644 0.666656 10.3334 1.26361 10.3334 1.99999V2.66666H11.3463C11.7513 2.66666 12.1344 2.85078 12.3874 3.16706L13.3745 4.40092C13.5636 4.63732 13.6667 4.93106 13.6667 5.23386V7.99999C13.6667 8.73639 13.0698 9.33332 12.3334 9.33332H11.6667C11.6667 10.4379 10.7713 11.3333 9.66671 11.3333C8.56211 11.3333 7.66671 10.4379 7.66671 9.33332H5.66671C5.66671 10.4379 4.77127 11.3333 3.66671 11.3333C2.56214 11.3333 1.66671 10.4379 1.66671 9.33332C0.930327 9.33332 0.333374 8.73639 0.333374 7.99999V1.99999C0.333374 1.26361 0.930327 0.666656 1.66671 0.666656H9.00004ZM3.66671 8.66666C3.29852 8.66666 3.00004 8.96512 3.00004 9.33332C3.00004 9.70152 3.29852 9.99999 3.66671 9.99999C4.03489 9.99999 4.33337 9.70152 4.33337 9.33332C4.33337 8.96512 4.03489 8.66666 3.66671 8.66666ZM9.66671 8.66666C9.29851 8.66666 9.00004 8.96512 9.00004 9.33332C9.00004 9.70152 9.29851 9.99999 9.66671 9.99999C10.0349 9.99999 10.3334 9.70152 10.3334 9.33332C10.3334 8.96512 10.0349 8.66666 9.66671 8.66666ZM11.3463 3.99999H10.3334V6.66666H12.3334V5.23386L11.3463 3.99999Z" fill="#1B1A1A"/>
</svg>
