<svg fill="none" height="17" viewBox="0 0 18 17" width="18" xmlns="http://www.w3.org/2000/svg"><path d="m8.52447.463525c.14968-.46065492.80138-.46065492.95106 0l1.65737 5.100815c.0669.20601.2589.34549.4755.34549h5.3633c.4844 0 .6858.61981.2939.90451l-4.339 3.15247c-.1752.12729-.2486.35299-.1816.55899l1.6573 5.1008c.1497.4607-.3775.8438-.7694.5591l-4.33901-3.1525c-.17524-.1273-.41254-.1273-.58778 0l-4.33901 3.1525c-.39186.2847-.9191-.0984-.76942-.5591l1.65735-5.1008c.06694-.206-.00639-.4317-.18164-.55899l-4.339006-3.15247c-.391857-.2847-.190469-.90451.293896-.90451h5.36331c.21661 0 .40859-.13948.47553-.34549z" fill="#ffba35"/></svg>