<svg fill="none" height="32" viewBox="0 0 28 32" width="28" xmlns="http://www.w3.org/2000/svg"><path d="m19.8333 6.50002v.5h.5 3.2223c1.4357 0 2.6137 1.13668 2.665 2.57149v.00004l.6785 18.99995c.0539 1.5091-1.1548 2.7619-2.6649 2.7619h-20.46826c-1.51006 0-2.71885-1.2527-2.66496-2.7619l.67857-18.99998c.05124-1.4348 1.22926-2.5715 2.66498-2.5715h3.22211.5v-.5c0-3.22166 2.61166-5.833333 5.83336-5.833333 3.2216 0 5.8333 2.611673 5.8333 5.833333zm-11.66666 3.16667v-.5h-.5-3.22211-.48246l-.01722.48215-.67859 18.99996-.01849.5179h.51817 20.46826.5181l-.0184-.5179-.6787-18.99996-.0172-.48215h-.4824-3.2223-.5v.5 1.58331c0 .5983-.485 1.0834-1.0833 1.0834-.5508 0-1.0061-.4114-1.0744-.9434l-.009-.1544v-1.56891-.5h-.5-6.3333-.5v.5 1.58331c0 .5983-.48502 1.0834-1.08332 1.0834-.55073 0-1.00609-.4114-1.07443-.9434l-.00891-.1544zm2.17676-3.43979-.0007.0092-.0004.00923-.0087.23633-.019.51836h.5187 6.3333.5v-.5c0-2.02504-1.6415-3.66667-3.6666-3.66667-1.9333 0-3.5166 1.49581-3.6566 3.39355z" fill="#fff" stroke="#1b1a1a"/></svg>