<svg width="30" height="32" viewBox="0 0 30 32" fill="none" xmlns="http://www.w3.org/2000/svg">
<path d="M24.0001 9.67589L24.0091 10.1667H24.5H26.0833C27.486 10.1667 28.636 11.2499 28.742 12.625L28.75 12.8425V28.6667C28.75 30.0693 27.6668 31.2194 26.2917 31.3254L26.0742 31.3334H3.91667C2.51406 31.3334 1.364 30.2502 1.258 28.875L1.25 28.6575V12.8334C1.25 11.4308 2.33319 10.2807 3.70832 10.1747L3.92584 10.1667H5.5H6V9.66669C6 4.69612 10.0294 0.666687 15 0.666687C19.8559 0.666687 23.8138 4.51261 23.9936 9.32435L24.0001 9.67589ZM26.5833 12.8334V12.3334H26.0833H3.91667H3.41667V12.8334V28.6667V29.1667H3.91667H26.0833H26.5833V28.6667V12.8334ZM16.316 21.4871L16.0833 21.6344V21.9097V23.9167C16.0833 24.515 15.5983 25 15 25C14.4492 25 13.9939 24.5887 13.9256 24.0567L13.9167 23.9023V21.9097V21.6213L13.667 21.4769C12.8687 21.015 12.3333 20.1531 12.3333 19.1667C12.3333 17.6939 13.5272 16.5 15 16.5C16.4728 16.5 17.6667 17.6939 17.6667 19.1667C17.6667 20.074 17.214 20.8756 16.52 21.358L16.316 21.4871ZM8.16667 9.66669V10.1667H8.66667H21.3333H21.8333V9.66669C21.8333 5.89274 18.7739 2.83335 15 2.83335C11.2261 2.83335 8.16667 5.89274 8.16667 9.66669Z" fill="white" stroke="#1B1A1A"/>
</svg>
