<svg width="16" height="13" viewBox="0 0 16 13" fill="none" xmlns="http://www.w3.org/2000/svg">
<path fill-rule="evenodd" clip-rule="evenodd" d="M11.6131 0C12.0548 0 12.4652 0.218454 12.7124 0.578812L12.7708 0.671813L14.9928 4.56047C15.2725 5.0499 15.2127 5.65805 14.8537 6.08246L14.778 6.1648L8.58924 12.3535C8.28554 12.6573 7.80563 12.6776 7.47838 12.4143L7.41071 12.3535L1.22198 6.1648C0.823388 5.76617 0.721133 5.16376 0.955711 4.65985L1.00713 4.56047L3.22922 0.671813C3.44835 0.288336 3.84164 0.0403843 4.27719 0.00450691L4.38688 0H11.6131ZM4.86193 4.19526C4.60158 4.45561 4.60158 4.87773 4.86193 5.13807L7.41078 7.68687C7.73618 8.01233 8.26384 8.01233 8.58924 7.68687L11.138 5.13807C11.3984 4.87773 11.3984 4.45561 11.138 4.19526C10.8777 3.93491 10.4556 3.93491 10.1952 4.19526L7.99998 6.39053L5.80474 4.19526C5.54439 3.93491 5.12228 3.93491 4.86193 4.19526Z" fill="#1B1A1A"/>
</svg>
