<svg fill="none" height="15" viewBox="0 0 15 15" width="15" xmlns="http://www.w3.org/2000/svg"><path d="m11.0188 11.8745-.0943-.0943-.1047.0827c-1.06723.8423-2.41473 1.3449-3.88003 1.3449-3.46168 0-6.267919-2.8062-6.267919-6.26791 0-3.46167 2.806239-6.267917 6.267919-6.267917 3.46163 0 6.26793 2.806247 6.26793 6.267917 0 1.46522-.5026 2.81273-1.3449 3.88001l-.0826.1047.0943.0943 2.7576 2.7576c.2363.2363.2363.6194 0 .8557-.2362.2363-.6193.2363-.8556 0zm-4.07903-9.99243c-2.79336 0-5.05782 2.26446-5.05782 5.05782 0 2.79339 2.26446 5.05781 5.05782 5.05781 2.79339 0 5.05783-2.26442 5.05783-5.05781 0-2.79335-2.26444-5.05782-5.05783-5.05782z" fill="#1b1a1a" stroke="#fff" stroke-width=".3"/></svg>