<svg fill="none" height="16" viewBox="0 0 14 16" width="14" xmlns="http://www.w3.org/2000/svg"><path d="m10.0043 10.8501v-.0001h-.0043-6c-1.27819 0-2.32292.9991-2.39593 2.2591h-.00006l-.00013.0044-.00382.1322h-.00006v.0043.75.15h.15 10.5.15v-.15-.75c0-1.2782-.9991-2.3229-2.2591-2.3959v-.0001l-.0044-.0001zm-.0043-1.2001c1.9353 0 3.514 1.5272 3.5966 3.4421l.0034.1595v.7484c0 .7107-.5493 1.2933-1.2464 1.3461l-.1064.0039h-10.4972c-.71072 0-1.29327-.5493-1.346091-1.2464l-.003909-.1064v-.7472c0-1.9353 1.52721-3.51403 3.44212-3.5966l.15951-.0034zm-3-9c1.98821 0 3.6 1.61178 3.6 3.6s-1.61179 3.6-3.6 3.6c-1.98822 0-3.6-1.61178-3.6-3.6s1.61178-3.6 3.6-3.6zm0 1.2c-1.32552 0-2.4 1.07452-2.4 2.4s1.07448 2.4 2.4 2.4 2.4-1.07452 2.4-2.4-1.07448-2.4-2.4-2.4z" fill="#1b1a1a" stroke="#fff" stroke-width=".3"/></svg>