<svg width="59" height="28" viewBox="0 0 59 28" fill="none" xmlns="http://www.w3.org/2000/svg">
<rect width="59" height="28" fill="#FFEEEB"/>
<path d="M18.5751 15.6641V14.3311H14.0907V15.6641H18.5751ZM22.666 19H24.163V9.13574H22.6523L20.0546 10.9814V12.4854L22.6318 10.6533H22.666V19ZM30.5235 19.1846C32.6495 19.1846 34.1397 17.7832 34.1397 15.7598C34.1397 13.8457 32.7793 12.458 30.8858 12.458C29.9219 12.458 29.1153 12.834 28.6846 13.4561H28.6504L28.9239 10.4277H33.5655V9.13574H27.6934L27.1739 14.7139H28.5752C28.958 14.0645 29.6963 13.6748 30.5508 13.6748C31.7813 13.6748 32.6426 14.5635 32.6426 15.8008C32.6426 17.0381 31.7813 17.9062 30.5371 17.9062C29.4366 17.9062 28.5957 17.2363 28.4864 16.2588H27.0235C27.1123 17.9814 28.5547 19.1846 30.5235 19.1846ZM39.6388 11.4805C39.6388 9.96289 38.798 8.99219 37.506 8.99219C36.2071 8.99219 35.3663 9.96289 35.3663 11.4805C35.3663 12.998 36.2071 13.9688 37.506 13.9688C38.798 13.9688 39.6388 12.998 39.6388 11.4805ZM37.506 13.0049C36.9591 13.0049 36.6173 12.4238 36.6173 11.4736C36.6173 10.5303 36.9591 9.94922 37.506 9.94922C38.046 9.94922 38.3878 10.5303 38.3878 11.4736C38.3878 12.4238 38.046 13.0049 37.506 13.0049ZM37.4445 19L40.9376 14.2217L44.6495 9.13574H43.3029L39.9054 13.7842L36.0909 19H37.4445ZM45.3741 16.6279C45.3741 15.1035 44.5402 14.1328 43.2413 14.1328C41.9425 14.1328 41.1085 15.1035 41.1085 16.6279C41.1085 18.1455 41.9425 19.1162 43.2413 19.1162C44.5402 19.1162 45.3741 18.1455 45.3741 16.6279ZM43.2413 18.1455C42.6945 18.1455 42.3595 17.5713 42.3595 16.6211C42.3595 15.6709 42.6945 15.0967 43.2413 15.0967C43.7882 15.0967 44.1232 15.6709 44.1232 16.6211C44.1232 17.5713 43.7882 18.1455 43.2413 18.1455Z" fill="#1B1A1A"/>
</svg>
