<svg fill="none" height="32" viewBox="0 0 28 32" width="28" xmlns="http://www.w3.org/2000/svg"><path d="m13.5659 4.34849.4341.75973.4341-.75971 1.3362-2.33819c.4748-.83088 1.3583-1.343633 2.3153-1.343633h7.2169c1.4397 0 2.3422 1.555263 1.628 2.805273l-5.3542 9.36994-.1851.324.2579.2697c1.8182 1.901 2.9342 4.4768 2.9342 7.3144 0 5.845-4.7383 10.5834-10.5833 10.5834-5.84499 0-10.58332-4.7384-10.58332-10.5834 0-2.8376 1.11613-5.4136 2.93436-7.3144l.25796-.2696-.18515-.3241-5.35427-9.36995c-.714272-1.24999.18829-2.805263 1.62795-2.805263h7.21698c.95699 0 1.84059.512763 2.31539 1.343633zm10.8067-.76706.4274-.74808h-.8616-5.8528-.2901l-.144.25193-2.2619 3.95838-.1418.24807.1418.24807 1.68 2.9402.0949.1659.1813.0604c.6633.2209 1.2976.5057 1.8955.8472l.4341.2479.248-.434zm-14.024-.49615-.1439-.25193h-.29019-5.85279-.86159l.42746.74807 4.44911 7.78598.24803.434.43408-.2479c1.42539-.8142 3.05829-1.3065 4.80059-1.3778l.8217-.0336-.408-.71406zm3.6514 9.24812c-4.64838 0-8.41665 3.7683-8.41665 8.4166 0 4.6484 3.76827 8.4167 8.41665 8.4167 4.6484 0 8.4167-3.7683 8.4167-8.4167 0-4.6483-3.7683-8.4166-8.4167-8.4166zm0 5.75c1.4728 0 2.6667 1.1938 2.6667 2.6666s-1.1939 2.6667-2.6667 2.6667-2.6667-1.1939-2.6667-2.6667 1.1939-2.6666 2.6667-2.6666z" fill="#fff" stroke="#1b1a1a"/></svg>